# Blender v2.79 (sub 0) OBJ File: ''
# www.blender.org
o Cube_Cube.001
v 0.000000 0.050000 -0.002737
v 0.000000 0.950000 -0.002737
v 0.050000 1.000000 -0.002737
v 0.950000 1.000000 -0.002737
v 1.000000 0.950000 -0.002737
v 1.000000 0.050000 -0.002737
v 0.905000 0.095000 0.097263
v 0.905000 0.905000 0.097263
v 0.095000 0.905000 0.097263
v 0.095000 0.095000 0.097263
v 0.950000 -0.000000 -0.002737
v 0.985355 0.014645 -0.002737
v 0.978868 0.021133 0.026131
v 0.950000 0.014645 0.032619
v 0.985355 0.050000 0.032619
v 0.950000 0.985356 0.032618
v 0.978868 0.978868 0.026130
v 0.985355 0.985356 -0.002737
v 0.985355 0.950000 0.032618
v 0.050000 -0.000000 -0.002737
v 0.050000 0.014645 0.032619
v 0.021132 0.021133 0.026131
v 0.014645 0.014645 -0.002737
v 0.014645 0.050000 0.032619
v 0.014645 0.985356 -0.002737
v 0.021132 0.978868 0.026130
v 0.050000 0.985356 0.032618
v 0.014645 0.950000 0.032618
vt 0.219874 0.780126
vt 0.219874 0.469874
vt 0.530126 0.469874
vt 0.530126 0.780126
vt 0.461701 0.085306
vt 0.469411 0.089888
vt 0.465055 0.094253
vt 0.459513 0.093084
vt 0.473886 0.097542
vt 0.466293 0.099754
vt 0.459090 0.100260
vt 0.462709 0.284159
vt 0.460509 0.276549
vt 0.466018 0.275313
vt 0.470392 0.279679
vt 0.460014 0.269352
vt 0.467184 0.269764
vt 0.474980 0.271938
vt 0.287292 0.085306
vt 0.289492 0.092916
vt 0.283982 0.094152
vt 0.279608 0.089786
vt 0.289986 0.100113
vt 0.282816 0.099701
vt 0.275020 0.097527
vt 0.288301 0.284159
vt 0.280590 0.279577
vt 0.284947 0.275212
vt 0.290488 0.276381
vt 0.276116 0.271924
vt 0.283708 0.269711
vt 0.290911 0.269205
vt 0.933732 0.587520
vt 0.940802 0.590448
vt 0.943730 0.597518
vt 0.943730 0.777482
vt 0.940802 0.784552
vt 0.933732 0.787480
vt 0.753768 0.787480
vt 0.746698 0.784552
vt 0.743770 0.777482
vt 0.743770 0.597518
vt 0.746698 0.590448
vt 0.753768 0.587520
vn 0.2623 -0.2623 0.9286
vn 0.2623 0.2623 0.9286
vn -0.2623 0.2623 0.9286
vn -0.2623 -0.2623 0.9286
vn 0.1433 -0.8410 -0.5218
vn 0.6156 -0.6156 -0.4921
vn 0.5934 -0.5934 0.5439
vn 0.2185 -0.7461 0.6290
vn 0.8410 -0.1433 -0.5218
vn 0.7461 -0.2185 0.6290
vn 0.1433 0.8410 -0.5218
vn 0.2185 0.7461 0.6290
vn 0.5934 0.5934 0.5439
vn 0.6156 0.6156 -0.4921
vn 0.7461 0.2185 0.6290
vn 0.8410 0.1433 -0.5218
vn -0.1433 -0.8410 -0.5218
vn -0.2185 -0.7461 0.6290
vn -0.5934 -0.5934 0.5439
vn -0.6156 -0.6156 -0.4921
vn -0.7461 -0.2185 0.6290
vn -0.8410 -0.1433 -0.5218
vn -0.1433 0.8410 -0.5218
vn -0.6156 0.6156 -0.4921
vn -0.5934 0.5934 0.5439
vn -0.2185 0.7461 0.6290
vn -0.8410 0.1433 -0.5218
vn -0.7461 0.2185 0.6290
s 1
f 7/1/1 8/2/2 9/3/3 10/4/4
f 11/5/5 12/6/6 13/7/7 14/8/8
f 6/9/9 15/10/10 13/7/7 12/6/6
f 7/11/1 14/8/8 13/7/7 15/10/10
f 4/12/11 16/13/12 17/14/13 18/15/14
f 8/16/2 19/17/15 17/14/13 16/13/12
f 5/18/16 18/15/14 17/14/13 19/17/15
f 20/19/17 21/20/18 22/21/19 23/22/20
f 10/23/4 24/24/21 22/21/19 21/20/18
f 1/25/22 23/22/20 22/21/19 24/24/21
f 3/26/23 25/27/24 26/28/25 27/29/26
f 2/30/27 28/31/28 26/28/25 25/27/24
f 9/32/3 27/29/26 26/28/25 28/31/28
f 8/16/2 7/11/1 15/10/10 19/17/15
f 19/17/15 15/10/10 6/9/9 5/18/16
f 20/19/17 11/5/5 14/8/8 21/20/18
f 21/20/18 14/8/8 7/11/1 10/23/4
f 4/12/11 3/26/23 27/29/26 16/13/12
f 16/13/12 27/29/26 9/32/3 8/16/2
f 2/30/27 1/25/22 24/24/21 28/31/28
f 28/31/28 24/24/21 10/23/4 9/32/3
f 20/33/17 23/34/20 1/35/22 2/36/27 25/37/24 3/38/23 4/39/11 18/40/14 5/41/16 6/42/9 12/43/6 11/44/5
