# Blender v2.79 (sub 0) OBJ File: ''
# www.blender.org
o Cube_Cube.001
v -0.900000 -1.000000 0.900000
v -0.900000 -0.900000 1.000000
v -1.000000 -0.900000 0.900000
v -0.900000 -0.970711 0.970711
v -0.957735 -0.957735 0.957735
v -0.970711 -0.900000 0.970711
v -0.970711 -0.970711 0.900000
v -0.900000 0.900000 1.000000
v -0.900000 1.000000 0.900000
v -1.000000 0.900000 0.900000
v -0.900000 0.970711 0.970711
v -0.957735 0.957735 0.957735
v -0.970711 0.970711 0.900000
v -0.970711 0.900000 0.970711
v -0.900000 -1.000000 -0.900000
v -1.000000 -0.900000 -0.900000
v -0.900000 -0.900000 -1.000000
v -0.970711 -0.970711 -0.900000
v -0.957735 -0.957735 -0.957735
v -0.970711 -0.900000 -0.970711
v -0.900000 -0.970711 -0.970711
v -0.900000 1.000000 -0.900000
v -0.900000 0.900000 -1.000000
v -1.000000 0.900000 -0.900000
v -0.900000 0.970711 -0.970711
v -0.957735 0.957735 -0.957735
v -0.970711 0.900000 -0.970711
v -0.970711 0.970711 -0.900000
v 0.900000 -1.000000 0.900000
v 1.000000 -0.900000 0.900000
v 0.900000 -0.900000 1.000000
v 0.970711 -0.970711 0.900000
v 0.957735 -0.957735 0.957735
v 0.970711 -0.900000 0.970711
v 0.900000 -0.970711 0.970711
v 0.900000 1.000000 0.900000
v 0.900000 0.900000 1.000000
v 1.000000 0.900000 0.900000
v 0.900000 0.970711 0.970711
v 0.957735 0.957735 0.957735
v 0.970711 0.900000 0.970711
v 0.970711 0.970711 0.900000
v 0.900000 -1.000000 -0.900000
v 0.900000 -0.900000 -1.000000
v 1.000000 -0.900000 -0.900000
v 0.900000 -0.970711 -0.970711
v 0.957735 -0.957735 -0.957735
v 0.970711 -0.900000 -0.970711
v 0.970711 -0.970711 -0.900000
v 0.900000 1.000000 -0.900000
v 1.000000 0.900000 -0.900000
v 0.900000 0.900000 -1.000000
v 0.970711 0.970711 -0.900000
v 0.957735 0.957735 -0.957735
v 0.970711 0.900000 -0.970711
v 0.900000 0.970711 -0.970711
vt 0.299910 0.700090
vt 0.299910 0.924910
vt 0.075090 0.924910
vt 0.075090 0.700090
vt 0.612410 0.700090
vt 0.612410 0.924910
vt 0.387590 0.924910
vt 0.387590 0.700090
vt 0.299910 0.299910
vt 0.075090 0.299910
vt 0.075090 0.075090
vt 0.299910 0.075090
vt 0.387590 0.612410
vt 0.387590 0.387590
vt 0.612410 0.387590
vt 0.612410 0.612410
vt 0.075090 0.612410
vt 0.075090 0.387590
vt 0.299910 0.387590
vt 0.299910 0.612410
vt 0.387590 0.299910
vt 0.387590 0.312400
vt 0.380379 0.312400
vt 0.375100 0.299910
vt 0.062600 0.700090
vt 0.062600 0.692879
vt 0.075090 0.687600
vt 0.387590 0.624900
vt 0.380379 0.624900
vt 0.375100 0.612410
vt 0.075090 0.937400
vt 0.067879 0.937400
vt 0.062600 0.924910
vt 0.062600 0.075090
vt 0.062600 0.067879
vt 0.075090 0.062600
vt 0.375100 0.387590
vt 0.375100 0.380379
vt 0.387590 0.375100
vt 0.387590 0.075090
vt 0.375100 0.075090
vt 0.375100 0.067879
vt 0.387590 0.062600
vt 0.624900 0.612410
vt 0.624900 0.619621
vt 0.612410 0.624900
vt 0.075090 0.624900
vt 0.067879 0.624900
vt 0.062600 0.612410
vt 0.075090 0.312400
vt 0.067879 0.312400
vt 0.062600 0.299910
vt 0.062600 0.387590
vt 0.062600 0.380379
vt 0.075090 0.375100
vt 0.612410 0.375100
vt 0.619621 0.375100
vt 0.624900 0.387590
vt 0.612410 0.299910
vt 0.624900 0.299910
vt 0.624900 0.307121
vt 0.612410 0.312400
vt 0.375100 0.700090
vt 0.375100 0.692879
vt 0.387590 0.687600
vt 0.299910 0.687600
vt 0.307121 0.687600
vt 0.312400 0.700090
vt 0.299910 0.062600
vt 0.307121 0.062600
vt 0.312400 0.075090
vt 0.312400 0.924910
vt 0.312400 0.932121
vt 0.299910 0.937400
vt 0.387590 0.937400
vt 0.380379 0.937400
vt 0.375100 0.924910
vt 0.612410 0.075090
vt 0.612410 0.062600
vt 0.619621 0.062600
vt 0.624900 0.075090
vt 0.312400 0.612410
vt 0.312400 0.619621
vt 0.299910 0.624900
vt 0.612410 0.687600
vt 0.619621 0.687600
vt 0.624900 0.700090
vt 0.312400 0.299910
vt 0.312400 0.307121
vt 0.299910 0.312400
vt 0.624900 0.924910
vt 0.624900 0.932121
vt 0.612410 0.937400
vt 0.299910 0.375100
vt 0.307121 0.375100
vt 0.312400 0.387590
vn 0.0000 0.0000 1.0000
vn 1.0000 0.0000 0.0000
vn 0.0000 1.0000 0.0000
vn -1.0000 0.0000 0.0000
vn 0.0000 0.0000 -1.0000
vn -0.3251 -0.8881 0.3251
vn -0.3251 -0.3251 0.8881
vn -0.8881 -0.3251 0.3251
vn -0.3251 0.3251 0.8881
vn -0.3251 0.8881 0.3251
vn -0.8881 0.3251 0.3251
vn -0.3251 -0.8881 -0.3251
vn -0.8881 -0.3251 -0.3251
vn -0.3251 -0.3251 -0.8881
vn -0.3251 0.8881 -0.3251
vn -0.3251 0.3251 -0.8881
vn -0.8881 0.3251 -0.3251
vn 0.3251 -0.8881 0.3251
vn 0.8881 -0.3251 0.3251
vn 0.3251 -0.3251 0.8881
vn 0.3251 0.8881 0.3251
vn 0.3251 0.3251 0.8881
vn 0.8881 0.3251 0.3251
vn 0.3251 -0.8881 -0.3251
vn 0.3251 -0.3251 -0.8881
vn 0.8881 -0.3251 -0.3251
vn 0.3251 0.8881 -0.3251
vn 0.8881 0.3251 -0.3251
vn 0.3251 0.3251 -0.8881
vn -0.3827 -0.9239 0.0000
vn -0.9239 -0.3827 0.0000
vn -0.3827 0.0000 0.9239
vn -0.9239 0.0000 0.3827
vn -0.3827 0.9239 0.0000
vn -0.9239 0.3827 0.0000
vn -0.3827 0.0000 -0.9239
vn -0.9239 0.0000 -0.3827
vn 0.0000 -0.9239 -0.3827
vn 0.0000 -0.3827 -0.9239
vn 0.0000 0.9239 -0.3827
vn 0.0000 0.3827 -0.9239
vn 0.9239 0.0000 -0.3827
vn 0.3827 0.0000 -0.9239
vn 0.3827 -0.9239 0.0000
vn 0.9239 -0.3827 0.0000
vn 0.3827 0.9239 0.0000
vn 0.9239 0.3827 0.0000
vn 0.3827 0.0000 0.9239
vn 0.9239 0.0000 0.3827
vn 0.0000 -0.9239 0.3827
vn 0.0000 -0.3827 0.9239
vn 0.0000 0.9239 0.3827
vn 0.0000 0.3827 0.9239
vn 0.0000 -1.0000 0.0000
s off
f 31/1/1 37/2/1 8/3/1 2/4/1
f 45/5/2 51/6/2 38/7/2 30/8/2
f 50/9/3 22/10/3 9/11/3 36/12/3
f 3/13/4 10/14/4 24/15/4 16/16/4
f 17/17/5 23/18/5 52/19/5 44/20/5
f 1/21/6 4/22/6 5/23/6 7/24/6
f 2/4/7 6/25/7 5/26/7 4/27/7
f 3/13/8 7/28/8 5/29/8 6/30/8
f 8/3/9 11/31/9 12/32/9 14/33/9
f 9/11/10 13/34/10 12/35/10 11/36/10
f 10/14/11 14/37/11 12/38/11 13/39/11
f 15/40/12 18/41/12 19/42/12 21/43/12
f 16/16/13 20/44/13 19/45/13 18/46/13
f 17/17/14 21/47/14 19/48/14 20/49/14
f 22/10/15 25/50/15 26/51/15 28/52/15
f 23/18/16 27/53/16 26/54/16 25/55/16
f 24/15/17 28/56/17 26/57/17 27/58/17
f 29/59/18 32/60/18 33/61/18 35/62/18
f 30/8/19 34/63/19 33/64/19 32/65/19
f 31/1/20 35/66/20 33/67/20 34/68/20
f 36/12/21 39/69/21 40/70/21 42/71/21
f 37/2/22 41/72/22 40/73/22 39/74/22
f 38/7/23 42/75/23 40/76/23 41/77/23
f 43/78/24 46/79/24 47/80/24 49/81/24
f 44/20/25 48/82/25 47/83/25 46/84/25
f 45/5/26 49/85/26 47/86/26 48/87/26
f 50/9/27 53/88/27 54/89/27 56/90/27
f 51/6/28 55/91/28 54/92/28 53/93/28
f 52/19/29 56/94/29 54/95/29 55/96/29
f 15/40/30 1/21/30 7/24/30 18/41/30
f 18/46/31 7/28/31 3/13/31 16/16/31
f 2/4/32 8/3/32 14/33/32 6/25/32
f 6/30/33 14/37/33 10/14/33 3/13/33
f 9/11/34 22/10/34 28/52/34 13/34/34
f 13/39/35 28/56/35 24/15/35 10/14/35
f 23/18/36 17/17/36 20/49/36 27/53/36
f 27/58/37 20/44/37 16/16/37 24/15/37
f 43/78/38 15/40/38 21/43/38 46/79/38
f 46/84/39 21/47/39 17/17/39 44/20/39
f 22/10/40 50/9/40 56/90/40 25/50/40
f 25/55/41 56/94/41 52/19/41 23/18/41
f 51/6/42 45/5/42 48/87/42 55/91/42
f 55/96/43 48/82/43 44/20/43 52/19/43
f 29/59/44 43/78/44 49/81/44 32/60/44
f 32/65/45 49/85/45 45/5/45 30/8/45
f 50/9/46 36/12/46 42/71/46 53/88/46
f 53/93/47 42/75/47 38/7/47 51/6/47
f 37/2/48 31/1/48 34/68/48 41/72/48
f 41/77/49 34/63/49 30/8/49 38/7/49
f 1/21/50 29/59/50 35/62/50 4/22/50
f 4/27/51 35/66/51 31/1/51 2/4/51
f 36/12/52 9/11/52 11/36/52 39/69/52
f 39/74/53 11/31/53 8/3/53 37/2/53
f 15/40/54 43/78/54 29/59/54 1/21/54
